<?xml version="1.0" standalone="no"?>
<!DOCTYPE svg PUBLIC "-//W3C//DTD SVG 20010904//EN"
 "http://www.w3.org/TR/2001/REC-SVG-20010904/DTD/svg10.dtd">
<svg version="1.0" xmlns="http://www.w3.org/2000/svg"
 width="128.000000pt" height="128.000000pt" viewBox="0 0 128.000000 128.000000"
 preserveAspectRatio="xMidYMid meet">

<g transform="translate(0.000000,128.000000) scale(0.100000,-0.100000)"
fill="#000000" stroke="none">
<path d="M99 1181 l-29 -29 0 -242 0 -242 29 -29 c24 -24 38 -29 75 -29 l46 0
0 -59 c0 -95 12 -96 130 -17 55 36 102 66 105 66 3 0 5 -75 5 -166 l0 -166 29
-29 29 -29 150 0 149 0 103 -71 c123 -85 133 -85 138 10 l3 61 45 0 c37 0 51
6 75 29 l29 29 0 241 c0 239 0 240 -24 268 -24 28 -26 28 -153 31 -104 3 -132
1 -141 -11 -7 -8 -10 -22 -6 -31 5 -13 24 -16 124 -16 88 0 120 -4 129 -14 8
-9 11 -81 9 -237 l-3 -224 -70 -5 -70 -5 -5 -53 -5 -53 -75 53 -75 53 -160 5
-160 5 -3 168 -2 167 121 0 c120 0 121 0 150 29 l29 29 0 242 0 242 -29 29
-29 29 -317 0 -317 0 -29 -29z m656 -271 l0 -235 -160 -5 -160 -5 -75 -52 -75
-53 -5 53 -5 52 -60 3 c-32 2 -65 8 -72 14 -10 8 -13 64 -13 233 0 122 3 225
7 228 4 4 144 6 312 5 l306 -3 0 -235z"/>
<path d="M370 1038 c-51 -35 -72 -69 -72 -120 -2 -108 107 -187 202 -148 28
11 33 10 54 -9 47 -44 89 -10 44 36 -24 24 -25 25 -10 67 47 128 -106 250
-218 174z m133 -58 c14 -11 28 -34 32 -50 7 -32 -7 -71 -19 -51 -11 17 -43 13
-50 -6 -4 -9 -2 -21 4 -27 18 -18 11 -26 -21 -26 -43 0 -69 17 -85 56 -12 29
-12 39 0 68 8 19 22 39 33 45 29 17 78 13 106 -9z"/>
<path d="M822 611 c-18 -11 -114 -241 -108 -257 9 -23 45 -16 58 11 10 22 17
25 63 25 46 0 53 -3 63 -25 13 -27 47 -34 56 -10 6 18 -92 252 -109 259 -6 2
-17 1 -23 -3z m25 -157 c-3 -3 -12 -4 -20 -2 -11 2 -12 9 -5 28 l10 25 11 -23
c5 -12 8 -25 4 -28z"/>
</g>
</svg>
