<?xml version="1.0" standalone="no"?>
<!DOCTYPE svg PUBLIC "-//W3C//DTD SVG 20010904//EN"
 "http://www.w3.org/TR/2001/REC-SVG-20010904/DTD/svg10.dtd">
<svg version="1.0" xmlns="http://www.w3.org/2000/svg"
 width="128.000000pt" height="128.000000pt" viewBox="0 0 128.000000 128.000000"
 preserveAspectRatio="xMidYMid meet">

<g transform="translate(0.000000,128.000000) scale(0.100000,-0.100000)"
fill="#000000" stroke="none">
<path d="M147 1233 c-15 -2 -43 -20 -62 -38 -43 -43 -48 -81 -43 -320 3 -156
6 -184 22 -208 18 -26 18 -28 0 -55 -17 -24 -19 -49 -19 -252 0 -201 2 -228
18 -252 41 -60 54 -63 279 -66 192 -3 210 -2 254 17 45 20 48 21 73 4 23 -16
53 -18 251 -18 246 0 255 2 297 63 16 24 18 51 18 252 0 198 -2 228 -18 251
-17 25 -16 28 4 73 19 44 20 62 17 254 -3 225 -6 238 -66 279 -24 16 -51 18
-252 18 -203 0 -228 -2 -252 -19 -27 -18 -29 -18 -55 0 -25 17 -51 19 -233 20
-113 1 -218 0 -233 -3z m437 -89 c24 -23 24 -425 0 -448 -23 -24 -425 -24
-448 0 -24 23 -24 425 0 448 23 24 425 24 448 0z m560 0 c24 -23 24 -425 0
-448 -23 -24 -425 -24 -448 0 -24 23 -24 425 0 448 23 24 425 24 448 0z m-560
-560 c24 -23 24 -425 0 -448 -23 -24 -425 -24 -448 0 -24 23 -24 425 0 448 23
24 425 24 448 0z m560 0 c24 -23 24 -425 0 -448 -23 -24 -425 -24 -448 0 -24
23 -24 425 0 448 23 24 425 24 448 0z"/>
<path d="M272 1008 c-17 -17 -15 -32 9 -61 l20 -26 -22 -30 c-38 -52 0 -90 52
-52 l29 22 29 -22 c52 -38 90 0 52 52 l-22 29 22 29 c38 52 0 90 -52 52 l-30
-22 -26 20 c-29 24 -44 26 -61 9z"/>
<path d="M945 964 l-56 -46 -30 28 c-24 23 -33 26 -47 18 -9 -6 -18 -19 -20
-28 -4 -21 64 -106 85 -106 20 0 161 110 168 133 7 20 -10 47 -30 47 -7 0 -39
-21 -70 -46z"/>
<path d="M272 448 c-17 -17 -15 -32 9 -61 l20 -26 -22 -30 c-38 -52 0 -90 52
-52 l29 22 29 -22 c52 -38 90 0 52 52 l-22 29 22 29 c38 52 0 90 -52 52 l-30
-22 -26 20 c-29 24 -44 26 -61 9z"/>
<path d="M832 448 c-17 -17 -15 -32 9 -61 l20 -26 -22 -30 c-38 -52 0 -90 52
-52 l29 22 29 -22 c52 -38 90 0 52 52 l-22 29 22 29 c38 52 0 90 -52 52 l-30
-22 -26 20 c-29 24 -44 26 -61 9z"/>
</g>
</svg>
